<svg xmlns="http://www.w3.org/2000/svg" id="prefix__Business_Settings" width="48" height="48" data-name="Business Settings" viewBox="0 0 48 48">
    <defs>
        <style>
            .prefix__cls-2{fill:#828282}
        </style>
    </defs>
    <g id="prefix__Grupo_5195" data-name="Grupo 5195">
        <path id="prefix__Retângulo_2715" d="M0 0H48V48H0z" data-name="Retângulo 2715" style="fill:none"/>
        <g id="prefix___009-settings" data-name="009-settings" transform="translate(12 12)">
            <g id="prefix__Grupo_5241" data-name="Grupo 5241" transform="translate(6.563 6.563)">
                <g id="prefix__Grupo_5240" data-name="Grupo 5240">
                    <path id="prefix__Caminho_4959" d="M145.438 140a5.438 5.438 0 1 0 1.642 10.622.938.938 0 0 0-.566-1.788 3.558 3.558 0 1 1 2.343-2.395.938.938 0 0 0 1.8.526 5.441 5.441 0 0 0-5.219-6.965z" class="prefix__cls-2" data-name="Caminho 4959" transform="translate(-140 -140)"/>
                </g>
            </g>
            <g id="prefix__Grupo_5243" data-name="Grupo 5243">
                <g id="prefix__Grupo_5242" data-name="Grupo 5242">
                    <path id="prefix__Caminho_4960" d="M21.188 8.719h-.472a.312.312 0 0 1-.286-.2l-.008-.02a.314.314 0 0 1 .061-.345l.334-.334a2.816 2.816 0 0 0 0-3.977l-.663-.663a2.813 2.813 0 0 0-3.978 0l-.334.334a.314.314 0 0 1-.344.062l-.018-.007a.313.313 0 0 1-.2-.287v-.469A2.816 2.816 0 0 0 12.469 0h-.937a2.816 2.816 0 0 0-2.813 2.813v.472a.313.313 0 0 1-.2.286l-.019.008a.314.314 0 0 1-.345-.061l-.334-.334a2.813 2.813 0 0 0-3.978 0l-.663.663a2.816 2.816 0 0 0 0 3.978l.334.334a.316.316 0 0 1 .06.348l-.006.014a.313.313 0 0 1-.287.2h-.468A2.816 2.816 0 0 0 0 11.531v.938a2.816 2.816 0 0 0 2.813 2.813h.472a.312.312 0 0 1 .286.2l.008.02a.314.314 0 0 1-.061.345l-.334.334a2.813 2.813 0 0 0 0 3.977l.663.663a2.813 2.813 0 0 0 3.978 0l.334-.334a.314.314 0 0 1 .344-.062l.018.007a.313.313 0 0 1 .2.287v.472A2.816 2.816 0 0 0 11.531 24h.937a2.816 2.816 0 0 0 2.813-2.812v-.472a.313.313 0 0 1 .2-.286l.018-.008a.314.314 0 0 1 .345.061l.334.334a2.813 2.813 0 0 0 3.978 0l.663-.663a2.813 2.813 0 0 0 0-3.977l-.334-.334a.314.314 0 0 1-.062-.345l.007-.017a.313.313 0 0 1 .287-.2h.472A2.816 2.816 0 0 0 24 12.469v-.937a2.816 2.816 0 0 0-2.812-2.813zm.938 3.75a.939.939 0 0 1-.937.938h-.472a2.182 2.182 0 0 0-2.02 1.359l-.006.015a2.183 2.183 0 0 0 .468 2.389l.334.334a.938.938 0 0 1 0 1.326l-.663.663a.938.938 0 0 1-1.326 0l-.334-.334a2.184 2.184 0 0 0-2.39-.467l-.013.005a2.182 2.182 0 0 0-1.359 2.02v.472a.939.939 0 0 1-.937.938h-.938a.939.939 0 0 1-.937-.937v-.472a2.182 2.182 0 0 0-1.36-2.02l-.013-.005a2.214 2.214 0 0 0-.85-.17 2.173 2.173 0 0 0-1.54.638l-.334.334a.938.938 0 0 1-1.326 0l-.663-.663a.937.937 0 0 1 0-1.326l.334-.334a2.183 2.183 0 0 0 .468-2.389l-.012-.018a2.182 2.182 0 0 0-2.02-1.359h-.467a.939.939 0 0 1-.937-.937v-.938a.939.939 0 0 1 .937-.937h.472a2.183 2.183 0 0 0 2.021-1.362v-.011a2.183 2.183 0 0 0-.467-2.39l-.33-.331a.939.939 0 0 1 0-1.326l.663-.663a.938.938 0 0 1 1.326 0l.334.334a2.183 2.183 0 0 0 2.39.467l.013-.012a2.182 2.182 0 0 0 1.359-2.02v-.467a.939.939 0 0 1 .938-.937h.938a.939.939 0 0 1 .938.937v.472a2.182 2.182 0 0 0 1.36 2.02l.013.005a2.183 2.183 0 0 0 2.39-.467l.334-.334a.938.938 0 0 1 1.326 0l.663.663a.939.939 0 0 1 0 1.326l-.334.334a2.182 2.182 0 0 0-.469 2.386l.007.017a2.182 2.182 0 0 0 2.02 1.359h.472a.939.939 0 0 1 .938.938z" class="prefix__cls-2" data-name="Caminho 4960"/>
                </g>
            </g>
        </g>
    </g>
</svg>
