<svg xmlns="http://www.w3.org/2000/svg" width="33.333" height="40" viewBox="0 0 33.333 40">
    <defs>
        <style>
            .prefix__cls-1{fill:#707070}.prefix__cls-2{fill:#35bab6}
        </style>
    </defs>
    <g id="prefix__analysis" transform="translate(-7 -2)">
        <path id="prefix__Path_3332" d="M28.333 2H11a4 4 0 00-4 4v32a4 4 0 004 4h17.333a4 4 0 004-4v-4H37a3.337 3.337 0 003.333-3.333v-1.334a.667.667 0 00-.667-.667h-3.333v-14A3.337 3.337 0 0033 11.333h-.667V6a4 4 0 00-4-4zm-5.21 1.333A1.978 1.978 0 0023 4a.668.668 0 01-.667.667H17A.668.668 0 0116.333 4a1.977 1.977 0 00-.123-.667zM31 38a2.669 2.669 0 01-2.667 2.667H11A2.669 2.669 0 018.333 38V6A2.669 2.669 0 0111 3.333h3.333A.668.668 0 0115 4a2 2 0 002 2h5.333a2 2 0 002-2A.668.668 0 0125 3.333h3.333A2.669 2.669 0 0131 6v5.333H19.667A3.34 3.34 0 0016.4 14H13a.667.667 0 00-.667.667v12a.667.667 0 00.667.667h7.333V26h-6.666V15.333h6.667V14h-2.545a2 2 0 013.877.667v16.666A2.669 2.669 0 0024.333 34H31zm8-7.333a2 2 0 01-2 2H26.642A2.646 2.646 0 0027 31.333V30h12zm-4-16v14h-8.667a.667.667 0 00-.667.667v2a1.333 1.333 0 11-2.667 0V14.667a3.3 3.3 0 00-.684-2H33a2 2 0 012 2z" class="prefix__cls-1" data-name="Path 3332"/>
        <path id="prefix__Path_3333" d="M12.333 38.667V8A.668.668 0 0113 7.333h1.333V6H13a2 2 0 00-2 2v30.667a2 2 0 002 2h15.333v-1.334H13a.668.668 0 01-.667-.666z" class="prefix__cls-1" data-name="Path 3333" transform="translate(-1.333 -1.333)"/>
        <path id="prefix__Path_3334" d="M23.333 25.667h-.667V25h-1.333v.667h-.667a.667.667 0 00-.667.667v2a.667.667 0 00.667.667h2v.667H20v.667a.667.667 0 00.667.667h.667v.667h1.333V31h.667a.667.667 0 00.666-.667v-2a.667.667 0 00-.667-.667h-2V27H24v-.667a.667.667 0 00-.667-.666z" class="prefix__cls-2" data-name="Path 3334" transform="translate(-4.333 -7.667)"/>
        <path id="prefix__Path_3335" d="M16 42h7.333v1.333H16z" class="prefix__cls-1" data-name="Path 3335" transform="translate(-3 -13.333)"/>
        <path id="prefix__Path_3336" d="M16 46h7.333v1.333H16z" class="prefix__cls-1" data-name="Path 3336" transform="translate(-3 -14.667)"/>
        <path id="prefix__Path_3337" d="M16 50h7.333v1.333H16z" class="prefix__cls-1" data-name="Path 3337" transform="translate(-3 -16)"/>
        <path id="prefix__Path_3338" d="M37.667 34.333A4.667 4.667 0 1033 29.667a4.672 4.672 0 004.667 4.666zm1.885-4h1.381a3.293 3.293 0 01-.319.858zM40.933 29h-2.6v-2.6a3.344 3.344 0 012.6 2.6zM37 26.4v3.266a.654.654 0 00.254.511l-.006.008 2.527 2.043a3.315 3.315 0 01-5.441-2.561A3.34 3.34 0 0137 26.4z" class="prefix__cls-2" data-name="Path 3338" transform="translate(-8.667 -7.667)"/>
        <path id="prefix__Path_3339" d="M16 11h16v1.333H16z" class="prefix__cls-1" data-name="Path 3339" transform="translate(-3 -3)"/>
    </g>
</svg>
