<svg xmlns="http://www.w3.org/2000/svg" id="prefix__Exports" width="48" height="48" viewBox="0 0 48 48">
    <path id="prefix__Retângulo_2714" d="M0 0H48V48H0z" data-name="Retângulo 2714" style="fill:none"/>
    <path id="prefix___007-share" d="M24.5 12.187v8.062A3.754 3.754 0 0 1 20.748 24H4.249A3.754 3.754 0 0 1 .5 20.249V3.75A3.754 3.754 0 0 1 4.249 0h10.734a.937.937 0 1 1 0 1.875H4.249A1.877 1.877 0 0 0 2.374 3.75v16.5a1.877 1.877 0 0 0 1.875 1.875h16.5a1.877 1.877 0 0 0 1.875-1.875v-8.063a.937.937 0 1 1 1.875 0zm-2.154-6.85a.93.93 0 0 1 0 1.323l-3.759 3.74a.937.937 0 0 0 1.322 1.33l3.759-3.736a2.8 2.8 0 0 0 0-3.983L19.909.271A.937.937 0 0 0 18.587 1.6zm-2.021.617a.937.937 0 0 0-.937-.937A12.655 12.655 0 0 0 6.733 17.671v.7a.937.937 0 0 0 1.875 0v-.7a10.792 10.792 0 0 1 10.78-10.78.937.937 0 0 0 .937-.937zm0 0" data-name="007-share" transform="translate(11.5 12.001)" style="fill:#828282"/>
</svg>
