<svg xmlns="http://www.w3.org/2000/svg" id="prefix__Get_Help" width="48" height="48" data-name="Get Help" viewBox="0 0 48 48">
    <g id="prefix__Grupo_5195" data-name="Grupo 5195">
        <path id="prefix__Retângulo_2715" d="M0 0H48V48H0z" data-name="Retângulo 2715" style="fill:none"/>
    </g>
    <path id="prefix___008-question" d="M11.952 18.8a.937.937 0 1 1 .937-.937.937.937 0 0 1-.937.937zm.937-4.219v-1.262A3.908 3.908 0 1 0 9.2 6.728a3.839 3.839 0 0 0-1.185 2.787.937.937 0 1 0 1.875 0 1.979 1.979 0 0 1 .61-1.437 2.074 2.074 0 0 1 1.534-.578 2.024 2.024 0 0 1 .371 4.006 1.753 1.753 0 0 0-1.39 1.72v1.351a.937.937 0 1 0 1.875 0zm5.318 7.692a.937.937 0 1 0-.971-1.6 10.214 10.214 0 1 1 3.17-3.047.937.937 0 1 0 1.559 1.042A11.994 11.994 0 0 0 3.514 3.514 12 12 0 0 0 18.208 22.27zm0 0" data-name="008-question" transform="translate(12.001 12)" style="fill:#828282"/>
</svg>
