<svg xmlns="http://www.w3.org/2000/svg" width="48" height="48" viewBox="0 0 48 48">
    <g id="prefix__Grupo_4644" data-name="Grupo 4644" transform="translate(-800 -1156)">
        <path id="prefix__Icon_feather-phone" d="M27.167 21v3.62a2.413 2.413 0 0 1-2.631 2.413 23.881 23.881 0 0 1-10.414-3.7 23.531 23.531 0 0 1-7.24-7.24 23.881 23.881 0 0 1-3.7-10.462A2.413 2.413 0 0 1 5.579 3H9.2a2.413 2.413 0 0 1 2.413 2.076 15.494 15.494 0 0 0 .845 3.391 2.413 2.413 0 0 1-.543 2.546l-1.533 1.533a19.307 19.307 0 0 0 7.24 7.24l1.533-1.533a2.413 2.413 0 0 1 2.545-.543 15.494 15.494 0 0 0 3.391.845A2.413 2.413 0 0 1 27.167 21z" data-name="Icon feather-phone" transform="translate(808.332 1165.5)" style="stroke:#adadad;stroke-linecap:round;stroke-linejoin:round;stroke-width:1.5px;fill:none"/>
        <path id="prefix__Retângulo_2450" d="M0 0H48V48H0z" data-name="Retângulo 2450" transform="translate(800 1156)" style="fill:none"/>
    </g>
</svg>
