<svg xmlns="http://www.w3.org/2000/svg" width="32.016" height="32" viewBox="0 0 32.016 32">
    <defs>
        <style>
            .cls-1{fill:#fff}
        </style>
    </defs>
    <g id="Group_4552" data-name="Group 4552" transform="translate(-943.743 -523.818)">
        <path id="Path_3324" d="M949.931 537.746a.768.768 0 0 0-.767.767v3.11a.768.768 0 0 0 .765.734h.034a.764.764 0 0 0 .733-.744v-3.1a.767.767 0 0 0-.765-.767z" class="cls-1" data-name="Path 3324" transform="translate(-.087 -.248)"/>
        <path id="Path_3325" d="M953.557 526.159a2.386 2.386 0 0 0-.971-2.012 2.022 2.022 0 0 0-1.9-.171l-4.85 1.976a2.671 2.671 0 0 0-2.081 2.832v22.04a2.662 2.662 0 0 0 2.028 2.84l4.91 2a2.274 2.274 0 0 0 .832.158 2.173 2.173 0 0 0 1.493-.711 2.1 2.1 0 0 0 .545-1.542.748.748 0 0 0-.008-.091zm-1.536 0v27.316c0 .369-.133.8-.5.8a.735.735 0 0 1-.26-.05l-4.915-2c-.875-.33-1.052-.561-1.052-1.379v-22.062c0-.825.168-1.045 1.07-1.385l4.886-1.987a.764.764 0 0 1 .267-.055c.347 0 .504.403.504.802z" class="cls-1" data-name="Path 3325"/>
        <path id="Path_3326" d="M955.282 527.412h7.311a1.3 1.3 0 0 1 1.3 1.3v7.737a.767.767 0 0 0 .733.8h.034a.765.765 0 0 0 .518-.2.8.8 0 0 0 .248-.589v-7.748a2.842 2.842 0 0 0-2.833-2.833h-7.312a.767.767 0 0 0 0 1.533z" class="cls-1" data-name="Path 3326" transform="translate(-.248)"/>
        <path id="Path_3327" d="M964.66 542.9h-.006a.765.765 0 0 0-.764.767v7.748a1.305 1.305 0 0 1-1.3 1.3h-7.221a.783.783 0 0 0-.553.2.765.765 0 0 0-.047 1.082.794.794 0 0 0 .588.249h7.233a2.839 2.839 0 0 0 2.835-2.833v-7.746a.768.768 0 0 0-.765-.769z" class="cls-1" data-name="Path 3327" transform="translate(-.249 -.497)"/>
        <path id="Path_3328" d="M976.2 539.766a.755.755 0 0 0-.165-.246l-5.165-5.166a.766.766 0 0 0-1.083 0 .767.767 0 0 0 0 1.083l3.856 3.855h-16.76a.767.767 0 0 0 .012 1.533h16.745l-3.857 3.857a.768.768 0 0 0 0 1.084.769.769 0 0 0 1.083 0l5.165-5.166a.768.768 0 0 0 .169-.834z" class="cls-1" data-name="Path 3328" transform="translate(-.497 -.248)"/>
    </g>
</svg>
