<svg xmlns="http://www.w3.org/2000/svg" width="22.266" height="32.007" viewBox="0 0 22.266 32.007">
    <defs>
        <style>
            .cls-1{fill:#ffff}
        </style>
    </defs>
    <g id="Group_4551" data-name="Group 4551" transform="translate(-1913.087 1004.54)">
        <path id="Path_2302" d="M1931.828-993.407h-9.741v-11.133h9.741zm-8.35-1.392h6.958v-8.349h-6.958z" class="cls-1" data-name="Path 2302" transform="translate(-2.738)"/>
        <path id="Path_2303" d="M1932.639-970.4H1915.8a2.763 2.763 0 0 1-2.713-2.714v-21.709a2.763 2.763 0 0 1 2.713-2.714h4.94v4.871h6.958v-4.871h4.94a2.717 2.717 0 0 1 2.714 2.714v21.639a2.778 2.778 0 0 1-2.713 2.784zm-16.839-25.748a1.321 1.321 0 0 0-1.322 1.322v21.639a1.321 1.321 0 0 0 1.322 1.322h16.769a1.321 1.321 0 0 0 1.322-1.322v-21.639a1.321 1.321 0 0 0-1.322-1.322h-3.479v4.87h-9.741v-4.87z" class="cls-1" data-name="Path 2303" transform="translate(0 -2.129)"/>
        <g id="Group_3229" data-name="Group 3229" transform="translate(1917.749 -991.32)">
            <path id="Path_2304" d="M1926.258-965.886a53.825 53.825 0 0 1-5.845-.348l-.626-.07v-.626c.139-4.314 2.435-6.61 6.471-6.61s6.332 2.366 6.471 6.61v.626l-.626.07a53.83 53.83 0 0 1-5.845.348zm-5.01-1.67a48.224 48.224 0 0 0 10.02 0c-.278-3.131-1.878-4.592-5.01-4.592s-4.731 1.461-5.01 4.592z" class="cls-1" data-name="Path 2304" transform="translate(-1919.787 981.89)"/>
            <path id="Path_2305" d="M1927.688-979.139a3.192 3.192 0 0 1-3.2-3.2 3.149 3.149 0 0 1 3.2-3.2 3.149 3.149 0 0 1 3.2 3.2 3.192 3.192 0 0 1-3.2 3.2zm0-4.94a1.8 1.8 0 0 0-1.809 1.809 1.8 1.8 0 0 0 1.809 1.809 1.755 1.755 0 0 0 1.809-1.809 1.842 1.842 0 0 0-1.809-1.809z" class="cls-1" data-name="Path 2305" transform="translate(-1921.217 985.54)"/>
        </g>
    </g>
</svg>
