<svg width="64" height="63" viewBox="0 0 64 63" fill="none" xmlns="http://www.w3.org/2000/svg">
<rect x="0.849609" width="63" height="63" rx="13.5" fill="url(#paint0_linear_1703_134)"/>
<rect x="0.849609" width="63" height="63" rx="13.5" fill="url(#paint1_linear_1703_134)"/>
<path d="M51.2082 19.4889C51.2082 15.6906 48.1176 12.6016 44.3201 12.6016C40.5226 12.6016 37.6207 15.4747 37.4392 19.1449C37.4344 19.2232 37.432 22.7796 37.432 26.6586L25.4376 14.8578C24.1359 13.4248 22.2778 12.6039 20.3384 12.6039C18.6307 12.6039 16.9923 13.235 15.724 14.3786C14.3197 15.6455 13.4957 17.4533 13.4551 19.3442C13.4551 19.3632 13.4527 19.3845 13.4527 19.4035C13.4527 19.4035 13.4455 41.4345 13.4623 43.5152C13.467 44.0442 13.6103 44.8106 13.7417 45.2993C14.549 48.3005 17.2837 50.3978 20.3957 50.3978C24.1932 50.3978 27.2838 47.3088 27.2838 43.5104V36.113C32.2564 41.145 38.7934 47.7548 38.791 47.7548C41.5663 50.6089 46.1305 50.8841 48.9798 48.31C50.4105 47.0193 51.2392 45.1712 51.2512 43.2376C51.2512 43.2376 51.2082 19.5672 51.2082 19.4913V19.4889ZM25.7218 43.508C25.7218 46.4452 23.331 48.8343 20.3957 48.8343C17.9906 48.8343 15.8721 47.2139 15.2511 44.8936C15.127 44.4309 15.029 43.8212 15.0243 43.5009C15.0075 41.4274 15.0147 36.7915 15.0195 33.4036C15.0195 32.3834 15.0219 31.4558 15.0243 30.7132C15.127 28.5708 16.0322 27.9801 17.3505 27.7784C18.6021 27.5839 20.4459 29.1853 23.0779 31.852C23.7657 32.5471 24.678 33.4724 25.7242 34.5305V43.508H25.7218ZM47.2435 35.0027C45.746 35.0027 44.3464 33.5222 41.6284 30.7867L38.9916 28.1936C38.9916 24.4949 38.994 19.5079 38.9988 19.209C39.1445 16.3786 41.4803 14.1627 44.3201 14.1627C47.1599 14.1627 49.6462 16.5518 49.6462 19.4937C49.6462 19.5743 49.682 26.7298 49.6892 31.5649C49.6796 33.5412 49.2473 35.0027 47.2435 35.0027Z" fill="white"/>
<path d="M44.3 21.0809C45.3988 21.0809 46.2896 20.1962 46.2896 19.1049C46.2896 18.0136 45.3988 17.1289 44.3 17.1289C43.2012 17.1289 42.3105 18.0136 42.3105 19.1049C42.3105 20.1962 43.2012 21.0809 44.3 21.0809Z" fill="white"/>
<path d="M20.4133 45.8661C21.5121 45.8661 22.4028 44.9814 22.4028 43.89C22.4028 42.7987 21.5121 41.9141 20.4133 41.9141C19.3145 41.9141 18.4238 42.7987 18.4238 43.89C18.4238 44.9814 19.3145 45.8661 20.4133 45.8661Z" fill="white"/>
<defs>
<linearGradient id="paint0_linear_1703_134" x1="32.3496" y1="-1.26671e-08" x2="32.7746" y2="91.1613" gradientUnits="userSpaceOnUse">
<stop stop-color="#0CABF9"/>
<stop offset="1" stop-color="#046B9F"/>
</linearGradient>
<linearGradient id="paint1_linear_1703_134" x1="32.3496" y1="0" x2="32.3496" y2="108.466" gradientUnits="userSpaceOnUse">
<stop stop-color="#34BCFF"/>
<stop offset="1" stop-color="#046B9F"/>
</linearGradient>
</defs>
</svg>
