<svg width="219" height="32" viewBox="0 0 219 32" fill="none" xmlns="http://www.w3.org/2000/svg">
<path fill-rule="evenodd" clip-rule="evenodd" d="M218.7 0.400391H214.275V9.7807H204.638C198.807 9.7807 195.168 13.3034 195.168 20.5947C195.168 27.8859 198.807 31.4087 204.638 31.4087H210.677C215.888 31.4087 218.7 28.3775 218.7 22.1512V0.400391ZM214.275 21.9464C214.275 25.633 212.91 27.1896 209.395 27.1896H205.052C201.288 27.1896 199.593 25.2644 199.593 20.5947C199.593 15.925 201.288 13.9588 205.052 13.9588H214.275V21.9464Z" fill="white"/>
<path d="M191.905 9.78086H182.93C178.629 9.78086 177.016 11.747 177.016 16.089V31.4088H181.4V16.7444C181.4 14.8601 182.268 13.959 184.212 13.959H191.905V9.78086Z" fill="white"/>
<path fill-rule="evenodd" clip-rule="evenodd" d="M150.139 9.78086H163.249C168.708 9.78086 170.859 12.812 170.859 16.9083V27.0668C170.859 30.18 170.032 31.4088 166.351 31.4088H156.136C150.966 31.4088 148.815 28.9101 148.815 24.8139C148.815 20.8816 150.801 18.5877 156.177 18.5877H166.558V16.9492C166.558 15.2698 165.607 13.959 163.208 13.959H150.139V9.78086ZM165.358 27.1897C166.227 27.1897 166.558 26.862 166.558 26.0838V22.0285H156.26C153.944 22.0285 153.117 22.9706 153.117 24.5682C153.117 26.1657 153.985 27.1897 156.177 27.1897H165.358Z" fill="white"/>
<path d="M126.046 3.75925H121.166V31.4086H126.046V19.8573H128.734C133.987 19.8573 134.979 20.267 136.509 23.2162L140.769 31.4086H146.228L141.72 22.7247C140.066 19.5296 138.784 18.096 136.178 17.3996C138.453 16.4165 139.777 14.819 141.017 12.3613L145.401 3.75925H140.149L135.889 12.0336C134.317 15.0648 133.532 15.4744 128.734 15.4744H126.046V3.75925Z" fill="white"/>
<path fill-rule="evenodd" clip-rule="evenodd" d="M101.608 9.78086H106.199C111.989 9.78086 115.67 13.3036 115.67 20.5948C115.67 27.8861 111.989 31.4088 106.199 31.4088H101.608C95.7765 31.4088 92.1371 27.8861 92.1371 20.5948C92.1371 13.3036 95.7765 9.78086 101.608 9.78086ZM105.785 13.959H102.022C98.2166 13.959 96.5623 15.9252 96.5623 20.5948C96.5623 25.2645 98.2166 27.1897 102.022 27.1897H105.785C109.549 27.1897 111.244 25.2645 111.244 20.5948C111.244 15.9252 109.549 13.959 105.785 13.959Z" fill="white"/>
<path d="M76.0062 9.78086H66.9903C64.7983 9.78086 63.9298 10.6001 63.9298 13.1397V31.4088H68.3137V14.5734C68.3137 14.1638 68.4791 13.959 68.8514 13.959H76.0062C80.5969 13.959 82.5821 15.8432 82.5821 19.2431V31.4088H87.0073V19.2431C87.0073 13.2626 83.4092 9.78086 76.0062 9.78086Z" fill="white"/>
<path fill-rule="evenodd" clip-rule="evenodd" d="M37.0113 9.78086H50.1217C55.5809 9.78086 57.7315 12.812 57.7315 16.9083V27.0668C57.7315 30.18 56.9043 31.4088 53.2235 31.4088H43.0082C37.8385 31.4088 35.6879 28.9101 35.6879 24.8139C35.6879 20.8816 37.673 18.5877 43.0495 18.5877H53.4303V16.9492C53.4303 15.2698 52.479 13.959 50.0803 13.959H37.0113V9.78086ZM52.2309 27.1897C53.0994 27.1897 53.4303 26.862 53.4303 26.0838V22.0285H43.1322C40.8162 22.0285 39.9891 22.9706 39.9891 24.5682C39.9891 26.1657 40.8576 27.1897 43.0495 27.1897H52.2309Z" fill="white"/>
<path d="M4.8802 31.4088V9.53512C4.8802 8.55203 5.4592 7.9376 6.57586 7.9376C7.44437 7.9376 7.94066 8.30626 8.31288 9.1255L16.4603 26.7801C17.6183 29.9342 19.3967 31.9004 23.2843 31.9004C27.5855 31.9004 29.6947 29.4836 29.6947 25.838V3.75947H24.7732V25.6332C24.7732 26.5753 24.1528 27.1898 23.1189 27.1898C22.209 27.1898 21.6714 26.6982 21.3405 26.0428L13.1931 8.38818C12.0351 5.2341 10.298 3.26792 6.41043 3.26792C2.06788 3.26792 0 5.68469 0 9.28935V31.4088H4.8802Z" fill="white"/>
</svg>
