<svg xmlns="http://www.w3.org/2000/svg" width="38.125" height="30.5" viewBox="0 0 38.125 30.5">
  <defs>
    <style>
      .cls-1 {
        fill: #707070;
      }

      .cls-2 {
        fill: #046B9F;
      }
    </style>
  </defs>
  <g id="Transfer" transform="translate(-2 -8)">
    <path id="Caminho_5112" data-name="Caminho 5112" class="cls-1" d="M19.156,32.146a.635.635,0,0,0-.635.635v.635H3.271V13.083h15.25v.635a.635.635,0,0,0,1.271,0V11.177A3.181,3.181,0,0,0,16.615,8H5.177A3.181,3.181,0,0,0,2,11.177V35.323A3.181,3.181,0,0,0,5.177,38.5H16.615a3.181,3.181,0,0,0,3.177-3.177V32.781A.635.635,0,0,0,19.156,32.146ZM5.177,9.271H16.615a1.906,1.906,0,0,1,1.906,1.906v.635H3.271v-.635A1.906,1.906,0,0,1,5.177,9.271ZM16.615,37.229H5.177a1.906,1.906,0,0,1-1.906-1.906v-.635h15.25v.635A1.906,1.906,0,0,1,16.615,37.229Z"/>
    <path id="Caminho_5113" data-name="Caminho 5113" class="cls-1" d="M15,11h1.271v1.271H15Z" transform="translate(-4.74 -1.094)"/>
    <path id="Caminho_5114" data-name="Caminho 5114" class="cls-1" d="M14,51h2.542v1.271H14Z" transform="translate(-4.375 -15.677)"/>
    <path id="Caminho_5115" data-name="Caminho 5115" class="cls-1" d="M48.615,8H37.177A3.181,3.181,0,0,0,34,11.177v2.542a.635.635,0,1,0,1.271,0v-.635h15.25V33.417H35.271v-.635a.635.635,0,1,0-1.271,0v2.542A3.181,3.181,0,0,0,37.177,38.5H48.615a3.181,3.181,0,0,0,3.177-3.177V11.177A3.181,3.181,0,0,0,48.615,8ZM35.271,11.812v-.635a1.906,1.906,0,0,1,1.906-1.906H48.615a1.906,1.906,0,0,1,1.906,1.906v.635ZM48.615,37.229H37.177a1.906,1.906,0,0,1-1.906-1.906v-.635h15.25v.635A1.906,1.906,0,0,1,48.615,37.229Z" transform="translate(-11.667)"/>
    <path id="Caminho_5116" data-name="Caminho 5116" class="cls-1" d="M47,11h1.271v1.271H47Z" transform="translate(-16.406 -1.094)"/>
    <path id="Caminho_5117" data-name="Caminho 5117" class="cls-1" d="M46,51h2.542v1.271H46Z" transform="translate(-16.042 -15.677)"/>
    <path id="Caminho_5118" data-name="Caminho 5118" class="cls-2" d="M32.813,28.177v-.635a1.271,1.271,0,0,0-1.271-1.271h0l0-1.271H30.271l0,1.271A1.271,1.271,0,0,0,29,27.542v1.271a1.271,1.271,0,0,0,1.271,1.271h1.271v1.271H30.271v-.635H29v.635a1.271,1.271,0,0,0,1.267,1.271l0,1.271h1.271l0-1.271h0a1.271,1.271,0,0,0,1.271-1.271V30.083a1.271,1.271,0,0,0-1.271-1.271H30.271V27.542h1.271v.635Z" transform="translate(-9.844 -6.198)"/>
    <path id="Caminho_5119" data-name="Caminho 5119" class="cls-1" d="M25.122,18.632a8.26,8.26,0,0,0-4.13,13.36.635.635,0,1,0,.965-.826,6.985,6.985,0,0,1,7.918-11.03L29,20.369a.635.635,0,0,0,.163,1.25.645.645,0,0,0,.165-.022l2.455-.658a.635.635,0,0,0,.449-.778l-.654-2.455a.635.635,0,1,0-1.227.329l.277,1.034a8.2,8.2,0,0,0-5.509-.437Z" transform="translate(-6.197 -3.361)"/>
    <path id="Caminho_5120" data-name="Caminho 5120" class="cls-1" d="M36.286,32.935a8.283,8.283,0,0,0-.838-9.458.635.635,0,1,0-.971.819A6.985,6.985,0,0,1,26.518,35.28l.871-.233a.635.635,0,1,0-.329-1.228l-2.455.658a.635.635,0,0,0-.449.778l.656,2.455a.635.635,0,1,0,1.227-.329l-.281-1.048a8.177,8.177,0,0,0,3.359.736,8.31,8.31,0,0,0,2.152-.285,8.206,8.206,0,0,0,5.018-3.849Z" transform="translate(-8.07 -5.555)"/>
    <path id="Caminho_5121" data-name="Caminho 5121" class="cls-1" d="M47,31h1.271v1.271H47Z" transform="translate(-16.406 -8.385)"/>
    <path id="Caminho_5122" data-name="Caminho 5122" class="cls-1" d="M51,31h1.271v1.271H51Z" transform="translate(-17.865 -8.385)"/>
    <path id="Caminho_5123" data-name="Caminho 5123" class="cls-1" d="M55,31h1.271v1.271H55Z" transform="translate(-19.323 -8.385)"/>
    <path id="Caminho_5124" data-name="Caminho 5124" class="cls-1" d="M15,31h1.271v1.271H15Z" transform="translate(-4.74 -8.385)"/>
    <path id="Caminho_5125" data-name="Caminho 5125" class="cls-1" d="M11,31h1.271v1.271H11Z" transform="translate(-3.281 -8.385)"/>
    <path id="Caminho_5126" data-name="Caminho 5126" class="cls-1" d="M7,31H8.271v1.271H7Z" transform="translate(-1.823 -8.385)"/>
  </g>
</svg>
