<svg xmlns="http://www.w3.org/2000/svg" width="36.213" height="28.374" viewBox="0 0 36.213 28.374">
    <g id="prefix__Group_4719" data-name="Group 4719" transform="translate(-502.787 -1095.629)">
        <path id="prefix__tuition-and-fees" d="M23.972 66.452H.824A.824.824 0 010 65.628V54.3a.824.824 0 01.824-.824h1.038a.824.824 0 110 1.647h-.215V64.8h21.5v-.2a.824.824 0 111.647 0v1.023a.823.823 0 01-.822.829zm11.417-1.369h-7.2a.824.824 0 110-1.647h6.377V39.725H15.081v7.068a.824.824 0 01-1.647 0V38.9a.824.824 0 01.824-.824h21.131a.824.824 0 01.824.824v25.359a.824.824 0 01-.824.824zm-7.2-2.8H5.04a.824.824 0 01-.824-.824v-11.33a.824.824 0 01.824-.824h23.149a.824.824 0 01.824.824v11.33a.823.823 0 01-.824.823zM5.863 60.635h21.5v-9.682h-21.5zM31.6 61.657a.824.824 0 01-.35-1.569 1.195 1.195 0 000-1.9.824.824 0 01.7-1.491 2.811 2.811 0 010 4.883.82.82 0 01-.35.077zM16.614 58.88a3.086 3.086 0 113.086-3.086 3.559 3.559 0 01-.2 1.1 2.992 2.992 0 01-2.886 1.986zm0-4.525a1.439 1.439 0 101.439 1.439 1.441 1.441 0 00-1.439-1.439zm7.933 2.263h-2.12a.824.824 0 110-1.647h2.12a.824.824 0 110 1.647zm-13.747 0H8.681a.824.824 0 110-1.647H10.8a.824.824 0 110 1.647zm19.826-9.907H19.02a.824.824 0 110-1.647h11.607a.824.824 0 110 1.647zm-2.244-3.38h-7.17a.824.824 0 010-1.647h7.17a.824.824 0 110 1.647z" transform="translate(502.787 1057.551)" style="fill:#707070"/>
        <g id="prefix__Ellipse_147" data-name="Ellipse 147" transform="translate(516 1110)" style="fill:#f1f1f1;stroke:#35bab6;stroke-width:2px">
            <circle cx="3.5" cy="3.5" r="3.5" style="stroke:none"/>
            <circle cx="3.5" cy="3.5" r="2.5" style="fill:none"/>
        </g>
    </g>
</svg>
